<?xml version="1.0" standalone="no"?>
<!DOCTYPE svg PUBLIC "-//W3C//DTD SVG 20010904//EN"
 "http://www.w3.org/TR/2001/REC-SVG-20010904/DTD/svg10.dtd">
<svg version="1.0" xmlns="http://www.w3.org/2000/svg"
 width="512.000000pt" height="512.000000pt" viewBox="0 0 512.000000 512.000000"
 preserveAspectRatio="xMidYMid meet">
<metadata>
Created by potrace 1.14, written by Peter Selinger 2001-2017
</metadata>
<g transform="translate(0.000000,512.000000) scale(0.100000,-0.100000)"
fill="#000000" stroke="none">
<path d="M2315 5079 c-598 -62 -1147 -326 -1561 -750 -198 -204 -345 -411
-464 -654 -84 -172 -137 -317 -183 -500 -58 -232 -71 -349 -71 -615 0 -266 13
-383 71 -615 225 -902 936 -1613 1838 -1838 232 -58 349 -71 615 -71 266 0
383 13 615 71 454 113 864 349 1191 684 198 204 345 411 464 654 117 238 195
490 236 760 26 169 26 541 0 710 -41 270 -119 522 -236 760 -244 498 -657 911
-1155 1155 -235 115 -495 196 -755 235 -126 19 -479 27 -605 14z m612 -28
c268 -40 496 -112 748 -236 498 -245 893 -640 1140 -1140 123 -250 193 -472
237 -750 31 -200 31 -530 0 -730 -44 -278 -114 -500 -237 -750 -247 -500 -642
-895 -1140 -1140 -253 -124 -473 -194 -750 -237 -200 -31 -530 -31 -730 0
-277 43 -497 113 -750 237 -498 245 -893 640 -1140 1140 -123 250 -193 472
-237 750 -17 113 -22 183 -22 365 0 182 5 252 22 365 44 278 114 500 237 750
247 500 642 895 1140 1140 304 149 562 220 940 259 94 10 416 -4 542 -23z"/>
<path d="M2390 4654 c-104 -27 -200 -82 -276 -158 -80 -80 -117 -144 -145
-254 -18 -73 -19 -125 -19 -1581 0 -1657 -3 -1564 62 -1700 62 -131 206 -243
369 -287 88 -24 280 -24 369 0 211 57 363 205 417 407 15 56 17 139 20 672 l4
607 -285 0 -286 0 0 -578 c0 -458 -3 -582 -13 -596 -19 -26 -68 -18 -84 14
-10 20 -13 328 -13 1465 0 1137 3 1445 13 1465 17 34 60 39 81 8 14 -20 16
-80 16 -510 l0 -488 283 2 282 3 0 515 c0 458 -2 523 -18 584 -52 206 -212
362 -420 411 -80 19 -283 19 -357 -1z"/>
</g>
</svg>
